<svg viewBox="0 0 0 0">
    <symbol xmlns="http://www.w3.org/2000/svg" id="eye-off" viewBox="0 0 512 512">
        <path d="M432 448a15.92 15.92 0 0 1-11.31-4.69l-352-352a16 16 0 0 1 22.62-22.62l352 352A16 16 0 0 1 432 448ZM248 315.85l-51.79-51.79a2 2 0 0 0-3.39 1.69 64.11 64.11 0 0 0 53.49 53.49 2 2 0 0 0 1.69-3.39Zm16-119.7L315.87 248a2 2 0 0 0 3.4-1.69 64.13 64.13 0 0 0-53.55-53.55 2 2 0 0 0-1.72 3.39Z"/>
        <path d="M491 273.36a32.2 32.2 0 0 0-.1-34.76c-26.46-40.92-60.79-75.68-99.27-100.53C349 110.55 302 96 255.68 96a226.54 226.54 0 0 0-71.82 11.79 4 4 0 0 0-1.56 6.63l47.24 47.24a4 4 0 0 0 3.82 1.05 96 96 0 0 1 116 116 4 4 0 0 0 1.05 3.81l67.95 68a4 4 0 0 0 5.4.24 343.81 343.81 0 0 0 67.24-77.4ZM256 352a96 96 0 0 1-93.3-118.63 4 4 0 0 0-1.05-3.81l-66.84-66.87a4 4 0 0 0-5.41-.23c-24.39 20.81-47 46.13-67.67 75.72a31.92 31.92 0 0 0-.64 35.54c26.41 41.33 60.39 76.14 98.28 100.65C162.06 402 207.92 416 255.68 416a238.22 238.22 0 0 0 72.64-11.55 4 4 0 0 0 1.61-6.64l-47.47-47.46a4 4 0 0 0-3.81-1.05A96 96 0 0 1 256 352Z"/>
    </symbol>
    <symbol xmlns="http://www.w3.org/2000/svg" xmlns:xlink="http://www.w3.org/1999/xlink" xml:space="preserve" id="eye" viewBox="0 0 488.85 488.85">
    <path d="M244.425 98.725c-93.4 0-178.1 51.1-240.6 134.1-5.1 6.8-5.1 16.3 0 23.1 62.5 83.1 147.2 134.2 240.6 134.2s178.1-51.1 240.6-134.1c5.1-6.8 5.1-16.3 0-23.1-62.5-83.1-147.2-134.2-240.6-134.2zm6.7 248.3c-62 3.9-113.2-47.2-109.3-109.3 3.2-51.2 44.7-92.7 95.9-95.9 62-3.9 113.2 47.2 109.3 109.3-3.3 51.1-44.8 92.6-95.9 95.9zm-3.1-47.4c-33.4 2.1-61-25.4-58.8-58.8 1.7-27.6 24.1-49.9 51.7-51.7 33.4-2.1 61 25.4 58.8 58.8-1.8 27.7-24.2 50-51.7 51.7z"/>
  </symbol>
</svg>
