<?xml version="1.0" standalone="no"?>
<!DOCTYPE svg PUBLIC "-//W3C//DTD SVG 20010904//EN"
 "http://www.w3.org/TR/2001/REC-SVG-20010904/DTD/svg10.dtd">
<svg version="1.0" xmlns="http://www.w3.org/2000/svg"
 width="128.000000pt" height="128.000000pt" viewBox="0 0 128.000000 128.000000"
 preserveAspectRatio="xMidYMid meet">
<metadata>
Created by potrace 1.14, written by Peter Selinger 2001-2017
</metadata>
<g transform="translate(0.000000,128.000000) scale(0.100000,-0.100000)"
fill="#000000" stroke="none">
<path d="M368 1270 c-47 -18 -98 -83 -121 -153 -24 -72 -18 -217 12 -283 52
-119 155 -159 241 -96 143 106 128 446 -22 523 -36 18 -79 22 -110 9z"/>
<path d="M797 1258 c-71 -45 -112 -134 -116 -256 -6 -196 113 -338 236 -282
84 38 126 121 130 257 3 120 -24 202 -86 264 -41 40 -113 47 -164 17z"/>
<path d="M93 800 c-64 -14 -97 -65 -90 -139 13 -133 130 -235 226 -199 104 40
93 217 -20 305 -32 26 -84 40 -116 33z"/>
<path d="M1132 796 c-152 -40 -211 -284 -81 -334 75 -28 159 23 207 126 57
124 -12 238 -126 208z"/>
<path d="M558 637 c-138 -52 -269 -191 -326 -346 -41 -113 -35 -180 20 -226
69 -58 177 -77 283 -48 72 19 138 19 207 -2 129 -38 256 -4 316 85 20 30 23
42 17 90 -20 162 -158 356 -303 427 -66 32 -157 41 -214 20z"/>
</g>
</svg>
